<svg xmlns="http://www.w3.org/2000/svg" viewBox="0 0 64 64"><defs><style>
    .cls-1{fill:#965500}.cls-4{fill:#281111}.cls-5{fill:#3e2c27}
</style>
</defs><g id="dog"><path class="cls-1" d="M25 13v4a12 12 0 0 1-12 12 6 6 0 0 1-6-6v-4A12 12 0 0 1 19 7a6 6 0 0 1 5.94 5.21A5.16 5.16 0 0 1 25 13zM57 19v4a6 6 0 0 1-6 6 12 12 0 0 1-12-12v-4a5.16 5.16 0 0 1 .06-.79A6 6 0 0 1 45 7a12 12 0 0 1 12 12z" /><path d="M53 32v17a8 8 0 0 1-8 8H19a8 8 0 0 1-8-8V32a21.84 21.84 0 0 1 .25-3.26A6 6 0 0 0 13 29a12 12 0 0 0 12-12v-4a5.16 5.16 0 0 0-.06-.79 21.2 21.2 0 0 1 14.12 0A5.16 5.16 0 0 0 39 13v4a12 12 0 0 0 12 12 6 6 0 0 0 1.75-.26A21.84 21.84 0 0 1 53 32z" style="fill:#efc589" /><path d="M43 48v3a6 6 0 0 1-6 6H27a6 6 0 0 1-6-6v-3a11 11 0 0 1 8-10.58.13.13 0 0 0 0 .06 1.49 1.49 0 0 0 .77 1.33L32 40l2.23-1.19a1.49 1.49 0 0 0 .77-1.33.13.13 0 0 0 0-.06A11 11 0 0 1 43 48z" style="fill:#b19267" /><circle class="cls-4" cx="23.5" cy="29.5" r="1.5" /><circle class="cls-4" cx="40.5" cy="29.5" r="1.5" /><path class="cls-5" d="M32 52a1 1 0 0 1-1-1V39a1 1 0 0 1 2 0v12a1 1 0 0 1-1 1z" /><path class="cls-5" d="M35 37.48a1.49 1.49 0 0 1-.77 1.33L32 40l-2.23-1.19a1.49 1.49 0 0 1-.77-1.33.13.13 0 0 1 0-.06A1.42 1.42 0 0 1 30.39 36h3.22A1.42 1.42 0 0 1 35 37.42a.13.13 0 0 1 0 .06z" /><path class="cls-4" d="M13 30a7 7 0 0 1-7-7v-4a12.93 12.93 0 0 1 1.27-5.61 1 1 0 1 1 1.8.86A11 11 0 0 0 8 19v4a5 5 0 0 0 3.54 4.78A4.83 4.83 0 0 0 13 28a11 11 0 0 0 11-11v-4a4.48 4.48 0 0 0-.05-.64A5 5 0 0 0 19 8a11 11 0 0 0-7.87 3.3 1 1 0 0 1-1.42-1.4A12.91 12.91 0 0 1 19 6a7 7 0 0 1 6.93 6.08A5.45 5.45 0 0 1 26 13v4a13 13 0 0 1-13 13zM51 30a13 13 0 0 1-12.3-8.79 1 1 0 1 1 1.9-.64A11 11 0 0 0 51 28a4.83 4.83 0 0 0 1.46-.22A5 5 0 0 0 56 23v-4A11 11 0 0 0 45 8a5 5 0 0 0-5 4.34 5 5 0 0 0 0 .66v4a1 1 0 0 1-2 0v-4a5.86 5.86 0 0 1 .07-.94 7 7 0 0 1 2-4A6.93 6.93 0 0 1 45 6a13 13 0 0 1 13 13v4a7 7 0 0 1-7 7z" /><path class="cls-4" d="M45 58H19a9 9 0 0 1-9-9V32a23.34 23.34 0 0 1 .26-3.41 1 1 0 0 1 .46-.7 1 1 0 0 1 .82-.11A4.83 4.83 0 0 0 13 28a11 11 0 0 0 11-11v-4a4.48 4.48 0 0 0-.05-.64 1 1 0 0 1 .66-1.09 22.24 22.24 0 0 1 14.78 0 1 1 0 0 1 .66 1.09A4.48 4.48 0 0 0 40 13v4a1 1 0 0 1-2 0v-4.09a20.29 20.29 0 0 0-12 0V17a13 13 0 0 1-13 13 6.54 6.54 0 0 1-.89-.06C12 30.64 12 31.33 12 32v17a7 7 0 0 0 7 7h26a6.84 6.84 0 0 0 1.86-.25 1 1 0 1 1 .54 1.92A8.75 8.75 0 0 1 45 58z" /><path class="cls-4" d="M52.71 52.13a.84.84 0 0 1-.27 0 1 1 0 0 1-.69-1.23A6.84 6.84 0 0 0 52 49V32c0-.67 0-1.36-.11-2.06A6.54 6.54 0 0 1 51 30a13 13 0 0 1-12.3-8.79 1 1 0 1 1 1.9-.64A11 11 0 0 0 51 28a4.83 4.83 0 0 0 1.46-.22 1 1 0 0 1 .82.11 1 1 0 0 1 .46.7A23.34 23.34 0 0 1 54 32v17a8.75 8.75 0 0 1-.33 2.4 1 1 0 0 1-.96.73zM50.56 55.75a1 1 0 0 1-.65-1.75l.08-.08a1 1 0 0 1 1.52 1.3 2.13 2.13 0 0 1-.3.3 1 1 0 0 1-.65.23zM32 41a1 1 0 0 1-.47-.12l-2.23-1.19a2.48 2.48 0 0 1-1.3-2.21.92.92 0 0 1 0-.16A2.4 2.4 0 0 1 30.39 35h3.22A2.4 2.4 0 0 1 36 37.32a.92.92 0 0 1 0 .16 2.48 2.48 0 0 1-1.3 2.21l-2.23 1.19A1 1 0 0 1 32 41zm-2-3.46a.5.5 0 0 0 .24.39l1.76.94 1.76-.94a.5.5 0 0 0 .24-.39.28.28 0 0 1 0-.09.43.43 0 0 0-.38-.45h-3.23a.43.43 0 0 0-.38.45.28.28 0 0 1-.01.09zm5-.06z" /><path class="cls-4" d="M37 58H27a7 7 0 0 1-7-7v-3a11.41 11.41 0 0 1 .24-2.37 1 1 0 1 1 2 .42 9.41 9.41 0 0 0-.2 2v3a5 5 0 0 0 5 5H37a5 5 0 0 0 5-5V48a9.93 9.93 0 0 0-2.93-7.07 9.83 9.83 0 0 0-3.38-2.22 2.34 2.34 0 0 1-1 1l-2.23 1.19a1 1 0 0 1-.94 0l-2.22-1.21a2.4 2.4 0 0 1-1-1 9.89 9.89 0 0 0-4.76 3.95 1 1 0 0 1-1.7-1.06 11.91 11.91 0 0 1 6.89-5.14 1 1 0 0 1 1 .32 1 1 0 0 1 .23.76.5.5 0 0 0 .24.39l1.76.94 1.76-.94a.5.5 0 0 0 .24-.39 1 1 0 0 1 .22-.76 1 1 0 0 1 1-.32A11.95 11.95 0 0 1 44 48v3a7 7 0 0 1-7 7z" /><path class="cls-4" d="M32 52a1 1 0 0 1-1-1V40a1 1 0 0 1 2 0v11a1 1 0 0 1-1 1z" /></g></svg>